<?xml version="1.0" encoding="UTF-8"?><!DOCTYPE svg PUBLIC "-//W3C//DTD SVG 1.1//EN" "http://www.w3.org/Graphics/SVG/1.1/DTD/svg11.dtd"><svg width="96" height="96" xmlns="http://www.w3.org/2000/svg"><path d="M90.46 35.928L84 29.74V14A14.02 14.02 0 0 0 69.999 0H25.997a14.02 14.02 0 0 0-14.001 14v15.752l-6.444 6.172C2.024 39.304 0 44.044 0 48.924V96h96V48.924c0-4.888-2.02-9.628-5.54-13zM27.997 16h40.002v12H27.997zm0 20h28.001v12H27.997zM84 84H11.997V49.12l20.445 20.44c4.288 4.288 9.92 6.428 15.557 6.428s11.268-2.144 15.557-6.432L84 49.112z"/><path d="M12.09 66.678V49.374l10.759 10.731C34.814 72.039 35.26 72.429 38.762 74.047c2.963 1.369 5.668 1.935 9.239 1.934 3.864-.001 6.613-.635 9.931-2.291 3.125-1.56 3.392-1.798 15.148-13.516l10.83-10.797V66.68v17.302H48 12.09zm15.976-24.651v-5.973h13.961 13.961v5.973V48H42.027 28.066zm0-20.006v-5.973H48h19.934v5.973 5.973H48 28.066z" fill="#fff"/></svg>